<svg id="Layer_1" data-name="Layer 1" xmlns="http://www.w3.org/2000/svg" viewBox="0 0 22.02 22"><defs><style>.cls-1{fill:none;stroke:#7f00ff;stroke-linecap:round;stroke-linejoin:round;stroke-width:2px;}</style></defs><title>layers-#7f00ff</title><path class="cls-1" d="M12.83,2.18a2,2,0,0,0-1.66,0L2.6,6.08A1,1,0,0,0,2.09,7.4a1,1,0,0,0,.51.51l8.58,3.91a2,2,0,0,0,1.66,0l8.58-3.9a1,1,0,0,0,.51-1.32,1,1,0,0,0-.51-.51Z" transform="translate(-1 -1)"/><path class="cls-1" d="M2,12a1,1,0,0,0,.58.91l8.6,3.91a2,2,0,0,0,1.65,0l8.58-3.9A1,1,0,0,0,22,12" transform="translate(-1 -1)"/><path class="cls-1" d="M2,17a1,1,0,0,0,.58.91l8.6,3.91a2,2,0,0,0,1.65,0l8.58-3.9A1,1,0,0,0,22,17" transform="translate(-1 -1)"/></svg>