<?xml version="1.0" encoding="utf-8"?>
<!-- Generator: Adobe Illustrator 22.1.0, SVG Export Plug-In . SVG Version: 6.00 Build 0)  -->
<svg version="1.1" id="Layer_1" xmlns="http://www.w3.org/2000/svg" xmlns:xlink="http://www.w3.org/1999/xlink" x="0px" y="0px"
	 viewBox="0 0 32 32" style="enable-background:new 0 0 32 32;" xml:space="preserve">
<style type="text/css">
	.st0{clip-path:url(#SVGID_2_);fill:url(#SVGID_3_);}
	.st1{clip-path:url(#SVGID_5_);fill:url(#SVGID_6_);}
</style>
<g>
	<defs>
		<path id="SVGID_1_" d="M-228.7,23.1c5.7,5.5,9.4,13.1,9.7,21.6c0.7,18.3-12.8,31.4-32.7,32.7c-44.7,2.9-43.4-25.4-43.4-25.4V30.5
			h17.1c4.4,0,8.4,0,12.1,0c2.5,0,4.9,0,7.1,0C-245.6,30.6-237.2,29.8-228.7,23.1 M-296.4-11.7c-0.3-11,2.6-22.8,10.3-31
			c6.9-7.4,18.9-11.9,29.7-11.1c8.7,0.6,16.6,4.6,20.5,13.2c3.5,7.6,2.3,17-2.9,23.5c-8.3,10.4-21.6,8.5-33.4,8.5h-24
			C-296.4-9.7-296.4-10.7-296.4-11.7 M-327.4-52.6c-4.8,10.6-6.6,22.3-6.6,33.8v69.1c0,7.1,4.5,65,81.2,65
			c45.8,0,72.7-35.7,72.7-69.1c0-19.5-8.1-37.1-21.1-49.7c4.2-8.4,6.6-17.8,6.6-27.8c0-19.7-10.2-38.4-26.1-50
			c-11.1-8-24.6-11.7-38.4-11.7C-287.1-93-316-77.8-327.4-52.6"/>
	</defs>
	<clipPath id="SVGID_2_">
		<use xlink:href="#SVGID_1_"  style="overflow:visible;"/>
	</clipPath>
	
		<linearGradient id="SVGID_3_" gradientUnits="userSpaceOnUse" x1="-565.7193" y1="411.9913" x2="-565.1245" y2="411.9913" gradientTransform="matrix(0 336.5222 -336.5222 0 138387.1406 190291.5781)">
		<stop  offset="0" style="stop-color:#FFADE8"/>
		<stop  offset="1" style="stop-color:#CB00FC"/>
	</linearGradient>
	<rect x="-334" y="-93" class="st0" width="153.9" height="208.3"/>
</g>
<text transform="matrix(1 0 0 1 -434.2017 238.7813)" style="display:none;"><tspan x="0" y="0" style="display:inline; font-family:'PublicSans-Bold'; font-size:72px;">Br</tspan><tspan x="62.6" y="0" style="display:inline; font-family:'PublicSans-Bold'; font-size:72px;">i</tspan><tspan x="79.6" y="0" style="display:inline; font-family:'PublicSans-Bold'; font-size:72px;">l</tspan><tspan x="96.3" y="0" style="display:inline; font-family:'PublicSans-Bold'; font-size:72px;">ique.ai</tspan></text>
<g>
	<defs>
		<path id="SVGID_4_" d="M19.8,17.6c0.8,0.7,1.2,1.7,1.3,2.9c0.1,2.4-1.7,4.2-4.4,4.4c-6,0.4-5.8-3.4-5.8-3.4v-2.9h2.3
			c0.6,0,1.1,0,1.6,0c0.3,0,0.6,0,0.9,0C17.5,18.6,18.6,18.5,19.8,17.6 M10.8,13c0-1.5,0.3-3,1.4-4.1c0.9-1,2.5-1.6,3.9-1.5
			c1.2,0.1,2.2,0.6,2.7,1.8c0.5,1,0.3,2.3-0.4,3.1c-1.1,1.4-2.9,1.1-4.4,1.1h-3.2C10.8,13.2,10.8,13.1,10.8,13 M6.6,7.5
			C6,8.9,5.8,10.5,5.8,12v9.2c0,0.9,0.6,8.7,10.8,8.7c6.1,0,9.7-4.8,9.7-9.2c0-2.6-1.1-4.9-2.8-6.6c0.6-1.1,0.9-2.4,0.9-3.7
			c0-2.6-1.4-5.1-3.5-6.7c-1.5-1.1-3.3-1.6-5.1-1.6C12,2.1,8.2,4.2,6.6,7.5"/>
	</defs>
	<clipPath id="SVGID_5_">
		<use xlink:href="#SVGID_4_"  style="overflow:visible;"/>
	</clipPath>
	
		<linearGradient id="SVGID_6_" gradientUnits="userSpaceOnUse" x1="-565.4559" y1="411.1798" x2="-565.3766" y2="411.1798" gradientTransform="matrix(0 336.5222 -336.5222 0 138387.1406 190291.5781)">
		<stop  offset="0" style="stop-color:#FFADE8"/>
		<stop  offset="1" style="stop-color:#CB00FC"/>
	</linearGradient>
	<rect x="5.8" y="2.1" class="st1" width="20.5" height="27.7"/>
</g>
</svg>
