<?xml version="1.0" encoding="UTF-8"?>
<svg id="_图层_1" data-name="图层 1" xmlns="http://www.w3.org/2000/svg" xmlns:xlink="http://www.w3.org/1999/xlink" viewBox="0 0 612 792">
  <defs>
    <style>
      .cls-1 {
        fill: url(#_未命名的渐变_83);
        stroke-width: 0px;
      }

      .cls-2 {
        font-family: PublicSans-Bold, 'Public Sans';
        font-size: 72px;
        font-weight: 700;
      }

      .cls-3 {
        letter-spacing: 0em;
      }

      .cls-4 {
        letter-spacing: 0em;
      }
    </style>
    <linearGradient id="_未命名的渐变_83" data-name="未命名的渐变 83" x1="306" y1="593.99" x2="306" y2="257.46" gradientTransform="translate(0 794) scale(1 -1)" gradientUnits="userSpaceOnUse">
      <stop offset="0" stop-color="#ffade8"/>
      <stop offset="1" stop-color="#cb00fc"/>
    </linearGradient>
  </defs>
  <path class="cls-1" d="m399.87,337.88c7.09-14.05,11.08-29.93,11.08-46.74,0-33.17-17.17-64.63-43.85-84-56.28-40.85-150.66-15.05-179.32,48.19-8.06,17.78-11.13,37.44-11.13,56.85v116.17h0c0,11.89,7.62,109.29,136.52,109.29,76.99,0,122.19-60,122.19-116.18.01-32.81-13.6-62.45-35.49-83.58Zm-159.96-13.81c-.44-18.45,4.38-38.4,17.24-52.17,11.61-12.43,31.71-19.93,49.85-18.61,14.57,1.06,27.87,7.81,34.47,22.27,5.8,12.71,3.87,28.59-4.8,39.54-13.9,17.54-36.32,14.22-56.13,14.22h-40.33c-.21-1.75-.25-3.51-.3-5.25Zm75.09,149.84c-75.18,4.89-73.03-42.76-73.03-42.76v-36.04h28.83c43.17-.36,62.72,3.27,82.94-12.38,0,0,0,0,0,0,9.61,9.22,15.76,22.02,16.27,36.27,1.11,30.8-21.46,52.74-55.02,54.92Z"/>
  <text class="cls-2" transform="translate(131.8 618.78)"><tspan x="0" y="0">Br</tspan><tspan class="cls-3" x="78.95" y="0">i</tspan><tspan class="cls-4" x="98.39" y="0">l</tspan><tspan x="121.71" y="0">ique.ai</tspan></text>
</svg>