<?xml version="1.0" encoding="utf-8"?>
<!-- Generator: Adobe Illustrator 22.1.0, SVG Export Plug-In . SVG Version: 6.00 Build 0)  -->
<svg version="1.1" id="Layer_1" xmlns="http://www.w3.org/2000/svg" xmlns:xlink="http://www.w3.org/1999/xlink" x="0px" y="0px"
	 viewBox="0 0 24 24" style="enable-background:new 0 0 24 24;" xml:space="preserve">
<style type="text/css">
	.st0{fill:#7F00FF;}
	.st1{fill:#FFFFFF;stroke:#FFFFFF;stroke-width:2;stroke-linecap:round;stroke-linejoin:round;}
</style>
<path class="st0" d="M12,22C6.5,22,2,17.5,2,12S6.5,2,12,2s10,4,10,9c0,2.8-2.2,5-5,5h-2.3c-1,0-1.8,0.8-1.7,1.8
	c0,0.4,0.1,0.7,0.3,1l0.3,0.4c0.6,0.8,0.4,1.9-0.4,2.4c-0.3,0.2-0.7,0.4-1,0.4L12,22z"/>
<circle class="st1" cx="13.5" cy="6.5" r="0.5"/>
<circle class="st1" cx="17.5" cy="10.5" r="0.5"/>
<circle class="st1" cx="6.5" cy="12.5" r="0.5"/>
<circle class="st1" cx="8.5" cy="7.5" r="0.5"/>
</svg>
